<?xml version="1.0" standalone="no"?>
<!DOCTYPE svg PUBLIC "-//W3C//DTD SVG 20010904//EN"
 "http://www.w3.org/TR/2001/REC-SVG-20010904/DTD/svg10.dtd">
<svg version="1.0" xmlns="http://www.w3.org/2000/svg"
 width="371.000000pt" height="317.000000pt" viewBox="0 0 371.000000 317.000000"
 preserveAspectRatio="xMidYMid meet">
<metadata>
Created by potrace 1.16, written by Peter Selinger 2001-2019
</metadata>
<g transform="translate(0.000000,317.000000) scale(0.100000,-0.100000)"
fill="#000000" stroke="none">
<path d="M947 2659 c-482 -242 -877 -444 -877 -449 0 -11 835 -430 856 -430
12 0 24 52 24 106 0 41 40 77 157 139 379 203 426 233 533 330 109 101 161
119 255 90 168 -53 244 -240 153 -375 -31 -45 -130 -97 -219 -116 -78 -16
-264 -102 -376 -174 -76 -48 -103 -88 -103 -152 0 -40 4 -50 33 -74 30 -26
441 -234 462 -234 18 0 1739 878 1743 889 3 8 -1615 826 -1729 874 l-35 14
-877 -438z"/>
<path d="M1768 2310 c-14 -10 -31 -32 -37 -48 -18 -43 -65 -72 -541 -333 l-85
-46 -8 -549 c-8 -555 -4 -1091 8 -1131 13 -41 66 -41 81 0 4 12 10 375 13 807
l6 785 185 97 c219 116 376 184 445 194 97 13 125 40 125 120 0 41 -5 51 -39
85 -33 34 -45 39 -83 39 -30 0 -54 -7 -70 -20z"/>
<path d="M2394 1458 l-557 -281 -244 121 c-134 67 -245 122 -248 122 -3 0 -5
-140 -5 -310 l0 -310 90 -45 c115 -56 214 -125 319 -220 46 -41 87 -75 92 -75
4 0 34 24 66 53 185 170 282 230 419 261 82 18 319 36 489 36 66 0 130 3 143
6 l22 6 0 459 c0 395 -2 459 -15 459 -8 0 -265 -127 -571 -282z"/>
<path d="M716 1689 c-3 -17 -6 -222 -6 -455 l0 -424 120 0 120 0 0 406 0 405
-102 49 c-57 28 -108 50 -114 50 -6 0 -14 -14 -18 -31z"/>
</g>
</svg>
