<?xml version="1.0" standalone="no"?>
<!DOCTYPE svg PUBLIC "-//W3C//DTD SVG 20010904//EN"
 "http://www.w3.org/TR/2001/REC-SVG-20010904/DTD/svg10.dtd">
<svg version="1.0" xmlns="http://www.w3.org/2000/svg"
 width="503.000000pt" height="124.000000pt" viewBox="0 0 503.000000 124.000000"
 preserveAspectRatio="xMidYMid meet">

<g transform="translate(0.000000,124.000000) scale(0.100000,-0.100000)"
fill="#000000" stroke="none">
<path d="M372 1037 l-342 -172 165 -83 c91 -45 167 -82 170 -82 3 0 5 15 5 33
0 31 4 34 117 92 72 37 131 74 151 97 42 45 79 55 125 33 55 -26 76 -91 47
-145 -12 -23 -66 -50 -98 -50 -11 0 -55 -20 -98 -43 -68 -38 -79 -48 -82 -73
-3 -28 2 -32 95 -77 l98 -48 342 173 342 174 -344 172 c-190 95 -346 172 -348
171 -1 0 -156 -78 -345 -172z"/>
<path d="M692 898 c-7 -7 -12 -17 -12 -22 0 -6 -55 -41 -123 -77 l-122 -66 -3
-332 c-2 -326 -2 -331 18 -331 20 0 20 6 20 318 l0 317 109 58 c60 31 122 57
138 57 50 0 70 41 37 74 -18 19 -45 21 -62 4z"/>
<path d="M4640 695 c0 -198 1 -205 20 -205 19 0 20 7 20 205 0 198 -1 205 -20
205 -19 0 -20 -7 -20 -205z"/>
<path d="M4780 695 c0 -198 1 -205 20 -205 18 0 20 7 20 65 0 36 4 65 9 65 5
0 35 -29 66 -65 48 -54 63 -65 88 -65 31 0 31 0 -43 75 l-74 74 24 28 c14 16
45 49 69 76 l45 47 -30 0 c-24 0 -39 -12 -84 -65 -30 -35 -58 -65 -62 -65 -5
0 -8 54 -8 120 0 113 -1 120 -20 120 -19 0 -20 -7 -20 -205z"/>
<path d="M1645 866 c-60 -26 -115 -113 -115 -181 0 -140 148 -234 276 -176 38
17 84 62 84 82 0 15 -48 10 -54 -6 -10 -26 -69 -55 -114 -55 -92 0 -142 55
-142 155 0 108 55 161 158 153 46 -4 60 -10 84 -36 26 -30 68 -44 68 -23 0 18
-50 69 -84 85 -41 19 -119 20 -161 2z"/>
<path d="M3940 860 c0 -17 7 -20 50 -20 l50 0 0 -175 0 -175 25 0 25 0 0 175
0 175 50 0 c43 0 50 3 50 20 0 19 -7 20 -125 20 -118 0 -125 -1 -125 -20z"/>
<path d="M2040 782 c-40 -19 -80 -88 -80 -137 1 -125 137 -200 225 -124 l35
31 0 -31 c0 -24 4 -31 20 -31 19 0 20 7 20 150 0 143 -1 150 -20 150 -15 0
-20 -7 -20 -27 l0 -26 -22 20 c-52 47 -100 55 -158 25z m146 -56 c28 -28 34
-42 34 -76 0 -76 -39 -119 -108 -120 -35 0 -49 6 -73 29 -24 25 -29 37 -29 81
0 61 11 84 48 104 47 26 90 20 128 -18z"/>
<path d="M2460 793 c-8 -3 -25 -15 -37 -26 l-23 -20 0 21 c0 15 -6 22 -20 22
-19 0 -20 -7 -20 -150 0 -143 1 -150 20 -150 19 0 20 7 20 101 0 132 19 168
90 168 71 0 90 -36 90 -168 0 -94 1 -101 20 -101 19 0 20 7 20 100 0 54 5 110
11 123 12 27 47 47 84 47 67 0 85 -36 85 -170 0 -93 1 -100 20 -100 19 0 20 7
20 110 0 80 -4 119 -15 140 -35 68 -135 79 -187 21 -27 -30 -28 -30 -39 -10
-19 35 -94 58 -139 42z"/>
<path d="M3045 788 c-11 -6 -30 -20 -42 -31 l-23 -20 0 26 c0 20 -5 27 -20 27
-19 0 -20 -7 -20 -220 0 -213 1 -220 20 -220 19 0 20 7 20 103 1 82 3 99 13
87 41 -52 117 -65 175 -30 37 23 71 88 72 135 0 47 -40 116 -80 137 -39 20
-85 23 -115 6z m95 -43 c39 -20 50 -43 50 -105 0 -44 -5 -56 -29 -81 -23 -23
-38 -29 -71 -29 -23 0 -50 5 -61 10 -28 15 -49 63 -49 111 0 33 6 47 34 75 38
38 77 44 126 19z"/>
<path d="M3710 782 c-42 -21 -59 -60 -42 -97 12 -25 36 -39 125 -70 37 -13 47
-21 47 -39 0 -33 -19 -46 -66 -46 -40 0 -74 19 -74 41 0 5 -11 9 -24 9 -19 0
-23 -4 -19 -19 13 -49 93 -83 157 -67 35 9 66 44 66 76 0 42 -26 68 -88 86
-85 24 -111 54 -76 88 25 25 81 20 108 -9 21 -22 56 -34 56 -20 0 23 -35 65
-61 74 -44 15 -68 14 -109 -7z"/>
<path d="M4330 782 c-73 -36 -103 -136 -64 -218 35 -72 129 -96 198 -49 45 31
46 31 46 0 0 -18 5 -25 20 -25 19 0 20 7 20 150 0 143 -1 150 -20 150 -15 0
-20 -7 -20 -25 0 -27 -14 -34 -23 -12 -7 18 -68 47 -99 47 -12 0 -39 -8 -58
-18z m127 -42 c63 -38 66 -142 6 -190 -57 -44 -152 -14 -169 55 -27 108 72
191 163 135z"/>
<path d="M3310 685 c0 -119 12 -155 60 -180 40 -21 89 -19 128 5 32 20 32 20
32 0 0 -15 7 -20 25 -20 l25 0 0 150 0 150 -25 0 -25 0 0 -105 c0 -99 -2 -107
-25 -130 -30 -31 -92 -34 -126 -6 -22 18 -24 28 -27 130 -3 101 -5 111 -23
111 -17 0 -19 -8 -19 -105z"/>
<path d="M943 567 l-223 -112 -95 48 -95 47 0 -118 0 -117 48 -23 c27 -13 70
-43 97 -67 l48 -44 51 46 c81 73 120 86 269 91 l127 4 0 179 c0 99 -1 179 -2
178 -2 0 -103 -50 -225 -112z"/>
<path d="M280 495 l0 -175 45 0 45 0 0 155 0 155 -40 20 c-21 11 -42 20 -45
20 -3 0 -5 -79 -5 -175z"/>
<path d="M3925 285 c-241 -18 -513 -44 -1035 -100 -587 -62 -909 -87 -1073
-83 l-138 3 -28 34 c-22 26 -32 32 -49 27 -30 -10 -29 -56 0 -83 36 -32 84
-43 213 -50 113 -5 422 13 630 37 196 23 1139 121 1320 136 137 12 302 18 525
18 332 1 399 -4 520 -42 61 -19 130 -77 130 -110 0 -11 7 -28 16 -36 38 -38
70 -2 53 60 -24 86 -127 149 -295 180 -117 21 -553 26 -789 9z"/>
</g>
</svg>
