<?xml version="1.0" standalone="no"?>
<!DOCTYPE svg PUBLIC "-//W3C//DTD SVG 20010904//EN"
 "http://www.w3.org/TR/2001/REC-SVG-20010904/DTD/svg10.dtd">
<svg version="1.0" xmlns="http://www.w3.org/2000/svg"
 width="503.000000pt" height="124.000000pt" viewBox="0 0 503.000000 124.000000"
 preserveAspectRatio="xMidYMid meet">
<metadata>
Created by potrace 1.16, written by Peter Selinger 2001-2019
</metadata>
<g transform="translate(0.000000,124.000000) scale(0.100000,-0.100000)"
fill="#000000" stroke="none">
<path d="M370 1040 l-355 -177 183 -92 182 -91 0 39 0 40 118 62 c64 34 134
80 154 101 21 21 46 38 56 38 73 0 123 -61 102 -126 -12 -36 -52 -64 -91 -64
-11 0 -61 -21 -110 -47 -84 -45 -89 -50 -89 -80 0 -31 4 -35 100 -83 l100 -50
355 177 355 178 -353 176 -352 177 -355 -178z"/>
<path d="M679 891 c-13 -18 -70 -55 -140 -93 l-119 -63 0 -337 0 -338 30 0 30
0 0 319 0 320 103 57 c66 37 112 56 131 55 33 -2 66 23 66 51 0 24 -35 58 -60
58 -11 0 -29 -13 -41 -29z"/>
<path d="M4630 700 l0 -210 35 0 35 0 0 210 0 210 -35 0 -35 0 0 -210z"/>
<path d="M4770 700 l0 -210 30 0 c30 0 30 0 30 58 l1 57 54 -58 c51 -56 55
-58 97 -55 l43 3 -72 76 -72 75 69 69 c39 38 70 73 70 77 0 5 -19 8 -42 8 -40
0 -47 -5 -93 -60 l-50 -59 -3 115 -3 114 -29 0 -30 0 0 -210z"/>
<path d="M1635 872 c-167 -80 -148 -335 28 -383 82 -22 183 10 225 71 29 44
28 50 -12 50 -26 0 -43 -9 -69 -35 -31 -31 -41 -35 -85 -35 -81 0 -132 56
-132 145 0 134 143 201 224 105 19 -23 33 -30 60 -30 41 0 43 4 17 46 -44 73
-172 106 -256 66z"/>
<path d="M3930 855 c0 -23 3 -25 50 -25 l50 0 0 -170 0 -170 35 0 35 0 0 170
0 170 55 0 c52 0 55 1 55 25 l0 25 -140 0 -140 0 0 -25z"/>
<path d="M2055 800 c-92 -28 -134 -153 -82 -245 40 -71 136 -97 205 -55 26 16
32 17 32 5 0 -10 11 -15 35 -15 l35 0 0 155 0 155 -35 0 c-25 0 -35 -4 -35
-15 0 -14 -3 -14 -22 -1 -31 19 -96 27 -133 16z m111 -68 c66 -53 54 -156 -21
-188 -96 -40 -172 101 -96 177 34 34 84 39 117 11z"/>
<path d="M2448 796 c-21 -7 -38 -10 -38 -5 0 5 -13 9 -30 9 l-30 0 0 -155 0
-155 30 0 30 0 0 95 c0 108 15 151 55 161 76 19 105 -28 105 -166 l0 -90 30 0
30 0 0 95 c0 109 15 151 57 161 36 9 75 -6 90 -36 8 -15 13 -64 13 -122 l0
-98 30 0 30 0 0 116 c0 135 -11 164 -74 189 -47 19 -104 13 -140 -16 -25 -20
-26 -20 -54 1 -36 27 -88 33 -134 16z"/>
<path d="M3061 803 c-14 -3 -35 -12 -48 -20 -21 -14 -23 -14 -23 1 0 12 -9 16
-35 16 l-35 0 0 -230 0 -230 35 0 35 0 0 90 0 90 33 -20 c70 -43 166 -15 205
60 54 107 1 228 -108 243 -19 3 -46 3 -59 0z m90 -82 c76 -76 0 -217 -96 -177
-58 24 -81 96 -50 156 30 59 98 68 146 21z"/>
<path d="M3728 803 c-41 -6 -78 -46 -78 -85 0 -53 23 -75 101 -98 79 -24 95
-43 59 -72 -28 -23 -68 -17 -89 12 -9 13 -25 20 -48 20 -31 0 -34 -2 -27 -22
16 -55 75 -84 151 -75 60 6 93 38 93 89 0 49 -23 72 -93 92 -69 20 -91 40 -77
67 16 29 75 26 96 -6 20 -31 74 -36 74 -6 0 42 -76 96 -125 89 -5 0 -22 -3
-37 -5z"/>
<path d="M4342 800 c-65 -16 -105 -75 -105 -156 0 -122 116 -201 218 -148 19
10 31 11 33 5 2 -6 19 -11 38 -11 l34 0 0 155 0 155 -35 0 c-25 0 -35 -4 -35
-15 0 -14 -3 -14 -22 -1 -30 19 -85 26 -126 16z m119 -79 c53 -53 32 -155 -38
-182 -38 -14 -91 13 -109 57 -45 108 68 204 147 125z"/>
<path d="M3300 685 c0 -82 4 -124 15 -144 27 -53 119 -77 178 -47 15 8 27 11
27 5 0 -5 16 -9 35 -9 l35 0 0 155 0 155 -35 0 -35 0 0 -104 c0 -96 -2 -107
-23 -132 -30 -35 -79 -37 -110 -5 -19 19 -22 34 -25 131 l-4 110 -29 0 -29 0
0 -115z"/>
<path d="M270 500 l0 -190 55 0 55 0 0 163 0 163 -55 27 -55 27 0 -190z"/>
<path d="M952 579 c-123 -60 -228 -109 -233 -109 -5 0 -50 20 -99 45 -49 25
-92 45 -95 45 -3 0 -5 -57 -5 -127 l0 -128 57 -24 c32 -14 75 -45 101 -71 l45
-46 47 47 c81 80 114 92 273 97 l137 4 0 189 c0 104 -1 189 -2 188 -2 0 -104
-50 -226 -110z"/>
<path d="M4105 304 c-22 -2 -116 -8 -210 -15 -194 -12 -478 -39 -1085 -103
-575 -61 -809 -78 -983 -74 l-148 3 -25 32 c-27 34 -52 41 -72 21 -34 -34 9
-108 75 -127 113 -33 400 -21 958 39 1079 116 1246 130 1600 137 380 7 531 -9
653 -69 35 -18 45 -30 60 -71 32 -91 98 -88 90 5 -13 127 -158 196 -458 218
-117 9 -364 11 -455 4z"/>
</g>
</svg>
